<?xml version="1.0" encoding="UTF-8"?>
<!DOCTYPE svg PUBLIC "-//W3C//DTD SVG 1.1//EN" "http://www.w3.org/Graphics/SVG/1.1/DTD/svg11.dtd">
<!-- Creator: CorelDRAW 2017 -->
<svg xmlns="http://www.w3.org/2000/svg" xml:space="preserve" width="150%" height="150%" version="1.1" style="shape-rendering:geometricPrecision; text-rendering:geometricPrecision; image-rendering:optimizeQuality; fill-rule:evenodd; clip-rule:evenodd"
viewBox="0 0 4450 4412"
 xmlns:xlink="http://www.w3.org/1999/xlink">
 <defs>
  <style type="text/css">
   <![CDATA[
    .fil0 {fill:#FEFEFE;fill-rule:nonzero}
   ]]>
  </style>
 </defs>
 <g id="Layer_x0020_3">
  <metadata id="CorelCorpID_0Corel-Layer"/>
  <path class="fil0" d="M2211 4381c-21,-2 -13,26 -16,31 35,-7 15,-38 16,-31z"/>
  <polygon class="fil0" points="2541,4291 2537,4303 2580,4267 "/>
  <path class="fil0" d="M2843 4220c-21,-18 -47,-9 -75,5 -28,15 -60,31 -89,29l-11 -8 -16 43c32,-11 69,-26 102,-41 33,-15 65,-27 89,-27z"/>
  <path class="fil0" d="M3036 4259c-17,-13 29,-28 -40,9 4,0 6,1 8,2 6,-3 15,-6 31,-11z"/>
  <path class="fil0" d="M3005 4270c-31,14 26,6 0,0l0 0z"/>
  <path class="fil0" d="M3146 4199l-34 33c13,6 51,-8 40,5 39,-27 25,-33 -6,-38z"/>
  <path class="fil0" d="M3169 4150c0,0 -4,4 -9,8 -4,4 -9,8 -9,8 6,2 12,1 18,-16z"/>
  <path class="fil0" d="M3113 4200l38 -33c-9,-4 -16,-18 -18,14 -2,-14 -5,2 -20,19z"/>
  <path class="fil0" d="M3085 4205c-27,1 -59,7 -24,-25 -37,19 -51,34 -45,41 6,6 32,5 69,-16z"/>
  <path class="fil0" d="M2843 4169c0,0 -8,-1 -17,-2 -8,-1 -17,-2 -17,-2l-22 23c5,-6 21,-7 34,-8 13,-2 25,-4 21,-11z"/>
  <path class="fil0" d="M3404 4087c-3,-10 -27,-15 -36,-24 0,0 -5,7 -11,14 -6,7 -11,13 -11,13 18,-2 49,-15 59,-3z"/>
  <path class="fil0" d="M3367 4063l32 -41c-38,22 -40,33 -32,41z"/>
  <path class="fil0" d="M3153 4100c0,0 -13,17 -28,33 -14,16 -29,33 -29,33 0,0 18,-18 35,-36 9,-9 17,-18 23,-26 6,-7 10,-12 10,-12l-13 7z"/>
  <path class="fil0" d="M3562 3980c0,0 -2,9 -5,18 -2,9 -5,18 -5,18 0,0 5,-14 10,-29 5,-15 9,-30 9,-30l-10 23z"/>
  <path class="fil0" d="M3659 3898c-4,29 43,6 34,30 24,-26 36,-57 46,-86 -15,25 -40,43 -79,57z"/>
  <path class="fil0" d="M3756 3795c-7,13 -12,29 -17,46 8,-14 14,-28 17,-46z"/>
  <path class="fil0" d="M3471 3980c7,3 22,12 48,1l-32 -12c-5,3 -10,7 -16,11z"/>
  <path class="fil0" d="M3486 3969l1 0c17,-11 30,-19 35,-23 -5,3 -15,10 -36,23z"/>
  <path class="fil0" d="M3467 3982c1,-1 3,-2 4,-3 -3,-1 -5,-1 -4,3z"/>
  <path class="fil0" d="M3276 4063c17,-28 58,-71 -2,-64 -8,27 27,22 2,64z"/>
  <path class="fil0" d="M3428 3967c0,0 -11,6 -23,11 -12,6 -23,11 -23,11 5,6 19,10 11,24 0,0 9,-12 18,-23 4,-6 9,-12 12,-16 3,-5 5,-8 5,-8z"/>
  <polygon class="fil0" points="3443,3945 3428,3967 3445,3958 "/>
  <path class="fil0" d="M3672 3836c9,-24 27,-41 45,-62 -25,17 -50,34 -72,53 3,9 3,30 27,8z"/>
  <path class="fil0" d="M3582 3901c1,-1 2,-3 3,-4 -4,0 -6,1 -3,4z"/>
  <path class="fil0" d="M3904 3577c-2,0 -4,0 -7,0 1,1 2,2 3,4l4 -4z"/>
  <path class="fil0" d="M3637 3827c-20,10 -26,24 -30,39 11,-13 23,-26 37,-39 -1,-4 -3,-6 -7,-1z"/>
  <path class="fil0" d="M3802 3731c-12,4 -25,10 -38,17 15,-1 41,-8 38,-17z"/>
  <path class="fil0" d="M3595 3898c-1,1 -1,2 -2,3 10,0 7,-2 2,-3z"/>
  <path class="fil0" d="M3595 3898c7,-10 9,-21 12,-32 -9,10 -17,20 -23,30 3,0 8,1 11,1z"/>
  <path class="fil0" d="M3812 3401c9,9 10,29 2,48 -8,20 -25,39 -51,47 -15,48 68,83 134,80 -8,-9 -15,-15 4,-64 -21,6 -97,63 -87,16 16,-29 26,-38 36,-41 10,-4 20,-2 36,-10 -21,1 -18,-23 -15,-49 3,-25 3,-54 -20,-63 0,0 -4,14 -10,27 -5,13 -10,27 -10,27 -7,-4 -4,-27 -18,-19z"/>
  <path class="fil0" d="M3831 3648l-12 17c20,-14 39,-20 75,-31 14,-35 11,-47 6,-54 0,0 -18,19 -35,38 -9,9 -18,19 -24,26 -7,7 -12,11 -12,11l2 -8z"/>
  <path class="fil0" d="M3753 3733c-8,-31 17,-76 -26,-76 -41,44 -13,46 -31,80 66,-73 -10,31 53,-7 -11,17 -23,30 -34,43 15,-10 31,-19 46,-26 -1,0 -2,0 -3,0l0 0 0 0c-6,0 -8,0 -3,-2 0,0 1,-1 1,-2 -2,-3 -3,-7 -4,-11 25,-16 9,2 4,11 1,1 1,3 2,4 0,0 0,0 1,0 0,0 16,-20 30,-41 14,-21 29,-42 29,-42 -18,12 -35,33 -66,68z"/>
  <path class="fil0" d="M3285 3921c4,1 5,2 6,4 3,-6 4,-9 -6,-4z"/>
  <path class="fil0" d="M3327 3915c-4,7 -2,20 -23,29 -21,3 -7,-12 -13,-19 -7,14 -29,42 14,32l4 -7c37,-12 99,-10 96,-3 -24,-15 -42,-25 -77,-32z"/>
  <path class="fil0" d="M3540 3830c0,0 3,-4 9,-9 5,-6 12,-13 18,-21 13,-16 26,-32 26,-32l-47 8 11 10c-38,24 -20,32 -17,44z"/>
  <path class="fil0" d="M3921 3578l16 28c0,0 0,-16 -1,-32 -1,-16 -2,-32 -2,-32l-13 37z"/>
  <path class="fil0" d="M3985 3491l18 19c0,0 1,-8 2,-16 1,-8 2,-16 2,-16l-23 14z"/>
  <path class="fil0" d="M1222 510l-14 17c7,-7 12,-12 14,-17z"/>
  <path class="fil0" d="M1356 439l-2 -13c-3,10 -3,16 2,13z"/>
  <path class="fil0" d="M4092 979c2,-43 11,-98 -11,-78l-18 25c18,18 26,36 29,53z"/>
  <path class="fil0" d="M2600 133c3,3 5,7 8,10 10,-8 19,-15 27,-22 -11,4 -23,7 -35,12z"/>
  <path class="fil0" d="M2555 246l-37 -25c8,8 20,16 37,25z"/>
  <path class="fil0" d="M645 1091c0,0 3,9 5,18 3,9 6,18 6,18 21,-31 0,-26 -11,-36z"/>
  <path class="fil0" d="M4396 2470c15,-29 23,-53 27,-74 -21,35 -49,61 -27,74z"/>
  <path class="fil0" d="M1127 214c-10,12 -13,20 -10,26 11,-12 16,-21 10,-26z"/>
  <path class="fil0" d="M4430 2306c-3,5 -5,10 -8,16 3,23 6,46 1,73 16,-26 25,-58 7,-89z"/>
  <path class="fil0" d="M1130 3732c1,2 3,4 4,7 3,-3 0,-5 -4,-7z"/>
  <path class="fil0" d="M1903 4326c-10,1 -26,-2 -41,-3 7,3 20,4 41,3z"/>
  <path class="fil0" d="M4223 3122c-8,22 1,5 0,0l0 0z"/>
  <path class="fil0" d="M4072 3169c-1,-6 -3,-11 -8,-14 5,5 8,10 8,14z"/>
  <path class="fil0" d="M4256 2082c0,-1 0,-1 0,-2 -5,7 -4,5 0,2z"/>
  <path class="fil0" d="M4195 3148c7,-6 14,-14 21,-23 -4,3 -11,10 -21,23z"/>
  <path class="fil0" d="M4210 3149c-5,7 -8,12 -12,17 3,5 7,4 12,-17z"/>
  <path class="fil0" d="M4235 3092c-5,12 -11,23 -18,33 4,-3 6,-4 6,-3 2,-6 6,-15 12,-30z"/>
  <path class="fil0" d="M232 2413c-1,1 -1,3 -2,5 14,19 11,10 2,-5z"/>
  <path class="fil0" d="M3510 736c1,0 2,0 3,1 0,-1 -1,-2 -1,-3l-1 2z"/>
  <path class="fil0" d="M3442 705c46,-7 57,7 69,29 0,0 10,-19 19,-39 9,-19 19,-39 19,-39 0,0 -27,12 -54,24 -26,12 -53,25 -53,25z"/>
  <path class="fil0" d="M697 3778l-5 -16c30,17 18,16 5,16zm3658 -2062c6,7 10,5 14,1 -9,-4 -13,-21 -15,-40 -7,7 -11,18 1,39zm-4 -78c-1,-1 -1,-1 -2,-1 3,-39 1,-25 2,1zm-2787 -1359c-7,13 -25,15 -48,10 13,-7 28,-12 48,-10zm-889 722c-2,8 -3,20 -7,31 -3,11 -8,19 -19,18 -20,-35 2,-35 25,-48zm-312 671l38 -40c24,69 -1,104 46,70 -42,-15 -33,-61 -20,-106 7,-23 13,-45 13,-65 1,-19 -6,-35 -26,-45l30 -23c-4,8 0,12 -4,20 62,-42 -42,-68 4,-140 19,-23 40,-35 40,-13l9 -67c10,-16 22,-4 12,11 0,0 2,-6 6,-14 4,-8 9,-19 15,-30 11,-22 21,-44 21,-44l2 2c-5,-19 -6,-58 -5,-76 24,-14 1,16 14,16 0,0 3,-15 6,-29 1,-7 3,-15 4,-20 1,-5 2,-9 2,-9 16,-3 22,9 21,24 0,16 -7,36 -19,51 51,3 52,-9 54,-30 2,-20 5,-51 58,-79 0,0 -1,3 -3,7 -2,4 -4,10 -7,16 -5,12 -10,24 -10,24 30,2 46,-8 64,-21 17,-13 34,-29 64,-40 -10,0 -43,9 -71,11 -28,2 -52,-2 -43,-32 16,-9 31,-24 37,-60 25,20 39,-8 63,-38l30 30c18,-39 1,-50 4,-81 35,-31 65,-14 92,-2 29,-22 11,-23 -8,-27 -18,-3 -37,-9 -8,-42 14,-8 26,-16 36,-25 11,-9 20,-19 29,-30 18,-22 33,-50 56,-82 44,-15 10,25 30,25l10 -50c8,-5 12,5 14,10 19,-30 -23,-36 14,-75 -7,-23 25,-25 61,-29 37,-3 77,-11 92,-50 20,3 6,26 19,38 29,-36 43,-51 54,-66 11,-15 21,-29 44,-66 0,0 17,-1 34,-1 17,0 34,0 34,0 -55,-11 -17,-68 21,-118 -21,-8 -40,-14 -52,-16 0,0 18,-14 36,-27 18,-14 37,-26 37,-26 12,3 9,20 2,41 4,-5 8,-10 11,-15 35,4 27,33 16,62 -13,-4 -25,-9 -38,-14 -10,32 -17,66 -3,87 3,-7 11,-14 20,-21 -2,9 -3,16 1,19 4,3 8,-9 17,-24l34 38 -2 -19c0,0 27,-2 55,-4 13,-1 27,-1 37,-2 10,0 17,0 17,0 14,-17 28,-35 42,-53 15,-18 30,-36 47,-54 17,-18 36,-35 59,-50 23,-14 49,-29 79,-39 -25,39 3,57 8,97 -20,-19 -43,-9 -67,5 -12,7 -26,15 -39,22 -14,8 -28,13 -44,15 33,-4 30,17 24,26 0,0 6,-4 15,-10 9,-6 21,-14 34,-22 25,-15 51,-30 51,-30 4,33 28,20 58,30 -16,-31 3,-45 31,-55 28,-10 66,-12 88,-25 5,22 -4,46 -59,46 33,22 50,0 68,-22 18,-23 36,-45 68,-25 -14,1 -21,-2 -26,10 15,-11 43,-13 64,-11 21,3 36,12 27,22l-13 1c23,2 51,3 81,2 30,0 62,0 92,-3 59,-4 110,-15 121,-41 0,7 -20,66 -26,77 0,0 11,-11 28,-26 17,-16 40,-36 64,-57 24,-21 49,-40 68,-55 19,-14 32,-24 32,-24 -12,22 -9,64 -14,102 -5,38 -17,72 -55,79 20,11 44,22 91,16 -12,-10 -21,-76 0,-76 22,33 29,42 39,50 9,9 21,16 47,47 -18,-16 24,-83 59,-70 -8,9 -18,73 -32,77 0,0 26,-12 52,-24 26,-11 53,-22 53,-22 -25,6 -23,59 -12,85 -2,-8 15,-2 36,6 21,9 44,21 56,21l-27 -29c43,23 75,7 108,-7 33,-14 68,-31 112,-6 -18,8 -67,72 -28,102 18,-12 62,-42 113,-64 51,-22 113,-39 160,-25l3 28c0,0 18,4 37,9 9,2 18,5 25,7 7,2 11,3 11,3 -34,10 -95,25 -154,38 -59,14 -119,29 -157,34 23,33 -4,27 44,52 6,27 -40,12 -54,6 0,0 25,18 49,36 13,9 24,19 33,26 9,7 15,12 15,12 10,-20 35,-17 61,-13 25,5 50,12 59,-5 0,0 -9,-3 -22,-6 -13,-4 -30,-9 -48,-13 -34,-8 -69,-17 -69,-17 9,-20 42,-37 83,-41 20,-2 43,-1 64,5 21,6 42,17 60,32 8,28 -61,54 -68,67 9,-3 31,3 50,13 19,10 35,22 35,28l-44 -5c14,22 39,23 63,27 24,4 46,14 55,49 14,15 6,83 26,66 12,-59 111,-181 155,-192 2,4 15,34 27,66 13,32 22,70 22,87 -2,27 -29,33 -55,39 -26,6 -52,11 -54,33 10,-8 33,-4 42,-1 7,23 -34,19 3,50 39,-24 60,76 43,-8 20,14 26,25 32,38 6,13 12,27 29,48 6,-16 33,-22 64,-19 31,3 66,14 85,31 -11,4 -17,22 -19,30 13,21 24,41 34,59 9,19 16,36 24,54 7,17 15,34 23,52 8,18 16,37 27,57 -5,13 4,57 -22,50 13,8 32,12 45,37 -12,65 -33,-53 -57,4 24,-8 65,48 94,79 16,-13 9,-36 -7,-58 -16,-22 -41,-44 -56,-58 25,-13 58,-10 93,7 18,8 37,20 54,35 17,15 34,34 50,55 23,34 16,46 7,50 -9,4 -21,0 -15,5 11,36 24,59 39,76 14,17 29,29 43,40 28,22 53,43 49,110 -22,57 -68,19 -90,36 -15,-29 -15,-54 -14,-77 0,-23 3,-44 -4,-65l0 56c-17,-16 -38,-54 -35,-79 -5,12 -3,33 3,59 3,13 6,28 10,43 4,16 7,32 11,49 4,17 9,35 12,52 3,18 6,36 9,53 6,35 7,69 3,98 15,18 32,50 44,32l-10 -35c23,-37 50,62 56,14 14,23 29,47 40,75 6,14 10,29 13,45 2,16 2,33 -1,50l-40 15c12,-2 22,-47 8,-65 10,14 -2,41 -10,69 -4,14 -7,27 -5,39 1,12 6,23 20,30 0,0 7,-12 14,-25 7,-12 13,-25 13,-25 12,25 27,52 39,82 12,30 19,62 11,94 41,-28 -4,-14 44,-59 -58,39 1,-165 -59,-100 26,-24 31,-45 34,-67 3,-22 6,-46 26,-79 -13,3 -23,24 -22,-30 -4,-2 -10,-7 -13,-11 0,-2 0,-2 1,-4 0,1 -1,2 -1,3 -2,-2 -3,-2 0,1 -4,13 -10,24 -17,29 -17,-12 -26,-38 -36,-65 -10,-27 -18,-54 -28,-66 2,-32 17,10 29,-9 0,0 -7,-9 -15,-19 -8,-9 -16,-19 -16,-19 28,-9 32,-92 64,-22l-12 -67c7,-43 0,-99 -22,-128 -3,-33 -55,-68 -25,-48 0,0 -12,-24 -25,-48 -13,-23 -27,-47 -27,-47l7 -3c-15,-50 -49,-95 -76,-144 -30,-47 -53,-99 -59,-164 -12,-14 -24,-27 -36,-45 -13,-17 -25,-37 -37,-64l16 -24c-15,-17 -30,-49 -44,-77 -14,-28 -28,-52 -45,-52 6,-20 2,-42 -9,-65 -6,-11 -13,-23 -21,-34 -9,-11 -19,-22 -29,-33 -21,-22 -43,-44 -64,-63 -21,-19 -40,-38 -52,-55l-26 21c-18,-21 -40,-38 -63,-55 -12,-9 -24,-17 -37,-26 -13,-8 -28,-16 -43,-25l-16 25c-30,-10 -53,-39 -82,-70 -14,-16 -28,-33 -44,-50 -16,-16 -34,-31 -53,-44 12,-6 29,10 39,26 -13,-29 -33,-51 -57,-67 -24,-15 -53,-25 -80,-35 -28,-10 -56,-16 -81,-27 -25,-11 -47,-26 -63,-48 -27,-2 -41,-13 -54,-28 2,1 4,1 6,1 -2,-1 -5,-3 -9,-5 -7,-10 -15,-20 -25,-29 7,11 13,20 20,27 -17,-8 -46,-16 -75,-21l2 -34c-2,-1 -4,-1 -6,-2 -21,-22 -26,5 -22,33 -15,-1 -30,0 -42,3 -1,-28 -20,-31 -39,-34 -20,-4 -40,-8 -45,-38 -14,9 -49,3 -85,0 -36,-1 -73,1 -87,26 1,-7 -6,-13 9,-9 -28,-15 -57,-28 -87,-19l-4 -42c0,0 -20,9 -39,19 -19,10 -39,20 -39,20 -35,-32 -50,-49 -4,-72 -27,7 -45,11 -59,13 -14,3 -24,4 -33,5 -19,2 -36,4 -80,22l7 -26c-30,-2 -81,29 -97,6 -16,-14 -45,-21 -82,-26 -37,-6 -82,-5 -131,-5 -97,3 -206,12 -297,5 23,36 2,30 -25,24 -27,-6 -60,-12 -57,18 -14,-16 -40,-21 -15,-42 -43,17 -77,20 -107,24 -30,4 -56,13 -79,46 -15,-14 11,-31 -1,-39 -6,6 -23,24 -35,16 -12,-8 8,-19 20,-30 -22,8 -38,17 -50,27 -11,11 -18,23 -21,35 -7,25 -1,52 5,78 -26,-4 -44,-3 -57,4 -13,8 -23,22 -31,44 -21,-10 -53,-16 -3,-44 -8,2 -23,7 -42,13 -9,3 -20,7 -30,10 -10,4 -21,9 -31,13 -41,19 -76,41 -67,61 -14,-5 -40,18 -45,27 -32,16 -49,24 -65,33 -17,9 -33,19 -61,39l20 -4c4,57 -41,40 -84,77l-2 -5c-32,10 -49,20 -60,27 -11,7 -15,13 -19,19 -4,6 -8,11 -20,18 -11,7 -29,15 -59,27l26 20c17,30 -10,40 -46,51 -36,12 -82,27 -99,61l32 -5c-7,21 -41,25 -81,26 -39,1 -82,1 -99,14 -10,3 2,-17 8,-29 -102,55 21,38 -24,105 -27,-3 -31,-52 -70,-12 -15,5 -26,48 -42,93 -14,46 -35,93 -72,113 23,-4 46,-8 37,30 -12,26 -48,48 -75,76 -27,28 -51,58 -38,94 -7,4 -13,5 -17,3 -3,23 -15,56 -21,89 -7,33 -10,65 -2,82 -30,-2 -47,14 -58,39 -11,25 -17,57 -20,89 -3,32 -6,61 -13,82 -7,21 -19,31 -43,24 0,0 -8,32 -15,65 -6,33 -13,65 -13,65l-9 -6c-14,41 -13,70 -10,93 4,23 13,40 23,56 -9,18 -17,3 -22,0 -18,60 -28,93 -25,125 2,32 12,62 35,114l-33 9c9,14 -6,58 -16,115 -2,14 -5,29 -7,45 -1,15 -2,31 -1,47 1,32 5,64 18,94 -4,-1 -10,-3 -16,-12 25,67 14,150 16,224 1,73 15,135 79,143 0,0 12,20 26,39 14,19 27,38 27,38 -13,-56 1,-55 19,-48 17,8 38,23 41,-2 10,20 10,49 4,68 -5,19 -15,27 -27,2l3 -10c-67,1 26,141 -13,153 44,106 88,210 137,310 49,101 107,196 174,282 0,0 5,-12 11,-25 6,-12 11,-25 11,-25 0,0 3,4 7,9 4,5 10,13 16,20 11,15 23,29 23,29 4,22 -11,45 -45,2 -3,40 76,54 85,47 28,45 11,47 -11,41 -22,-6 -49,-21 -38,-9l33 30 -3 -11c20,6 33,6 48,11 14,5 29,13 52,36 23,35 -6,36 5,49 -2,2 0,7 17,18 0,0 4,4 11,11 7,6 15,14 24,23 17,17 35,33 35,33l-4 -54c44,13 65,59 61,-2 3,45 67,106 137,154 34,25 71,45 99,63 29,17 50,30 56,40 16,1 31,4 46,8 15,3 29,8 43,14 28,11 56,27 88,43 -13,-14 -4,-57 48,-28 -28,36 -7,57 25,77 32,19 73,41 87,78 -14,-27 29,-15 69,-7 40,8 78,11 53,-27 47,21 -7,33 25,63 32,1 64,5 96,13 16,4 33,9 49,14 17,5 34,10 51,15 17,5 35,11 52,16 18,5 36,9 54,13 37,9 75,13 113,14 3,-11 -20,-31 13,-46 0,0 5,4 12,10 7,6 17,14 26,22 19,15 39,31 39,31 15,-2 23,-19 33,-29 10,-10 23,-15 51,4 -8,-10 -19,-24 1,-28 148,29 301,2 448,-35 148,-37 290,-81 452,-95 -47,-4 -23,-17 6,-30 -21,3 -11,-26 -22,-39 0,0 8,-1 20,-2 12,-1 29,-3 45,-5 17,-2 33,-4 46,-6 13,-2 21,-3 21,-3 0,-25 29,-42 57,-58 28,-16 54,-34 49,-54l-30 27c10,-35 -20,-49 -54,-62 -35,-14 -74,-28 -86,-57 -5,19 -18,28 -35,33 -17,4 -39,4 -61,5 -43,2 -89,5 -114,59 -23,-4 8,-25 -7,-35 -10,34 -34,48 -85,54l3 -8c-32,14 -62,21 -88,28 -27,7 -53,10 -79,12 -26,3 -53,5 -83,5 -30,1 -63,3 -102,4l16 29c-34,1 -42,-8 -59,-13 -32,53 94,-12 67,45 -14,-14 -35,-19 -61,-19 -25,0 -54,1 -83,4 -29,3 -57,2 -80,-1 -23,-4 -41,-12 -49,-31 -51,0 16,36 -36,36l-14 -19 -13 25c-34,-4 -50,-30 -51,-46 8,2 23,-4 32,-5 -21,-12 -51,-12 -78,-9 -27,3 -51,6 -58,1 0,0 12,4 24,8 12,4 24,8 24,8 -35,2 -72,1 -109,-3 -37,-5 -76,-9 -113,-16 -19,-3 -38,-6 -57,-9 -19,-4 -37,-7 -56,-9 -37,-4 -73,-10 -109,-9l6 17c-27,0 -46,-4 -59,-9 -14,-5 -23,-11 -33,-17 -19,-12 -38,-28 -94,-43l5 -2c-27,6 -58,-1 -87,-15 34,-4 -35,-53 7,-55 -57,-11 -72,-13 -84,-9 -12,3 -22,13 -68,19l-3 -30c-33,6 -42,17 -95,-10 51,8 -11,-52 48,-47 -18,-28 -38,-44 -58,-56 -20,-12 -39,-19 -57,-25 -36,-12 -63,-25 -60,-72 -43,10 -28,33 -7,53 21,21 50,36 33,33 4,17 -13,20 -34,16 -21,-5 -47,-18 -60,-33 -15,-13 -15,-40 -19,-72 -2,-16 -5,-33 -13,-50 -4,-8 -8,-17 -14,-25 -6,-9 -13,-17 -21,-25 7,7 11,4 17,10 -7,-19 -23,-27 -40,-36 -8,-5 -17,-10 -23,-17 -7,-8 -12,-17 -14,-30 -47,10 -37,-43 -81,-13l70 57c-22,-14 -53,-19 -82,-31 -30,-12 -57,-34 -73,-76 13,-2 39,9 56,17 -4,-29 -39,-29 -42,-59 22,-13 42,6 64,30 11,12 23,25 36,37 14,11 28,19 45,22 0,-17 -25,-28 -41,-39 -16,-11 -24,-19 6,-28 -40,9 -53,-11 -67,-34 -13,-24 -26,-52 -68,-61l28 -15c-10,-5 -34,-14 -44,-30l52 4c-29,-11 -37,-36 -43,-62 -7,-25 -8,-52 -30,-68 27,44 23,54 11,59 -11,5 -30,6 -26,31 -105,-89 28,-106 -52,-222 12,15 18,72 -9,53 -8,-27 -13,-65 -5,-87 -47,-82 -23,27 -58,-1 20,-45 -33,-36 -62,-71l29 -12c-6,-27 -13,-41 -21,-48 -8,-7 -17,-7 -25,-7 -17,0 -33,1 -39,-50l56 25c0,0 -7,-11 -14,-22 -4,-6 -7,-11 -10,-15 -2,-4 -4,-7 -4,-7l38 -2c-21,-22 -31,-38 -37,-55 -6,-17 -7,-35 -9,-63 -19,18 -58,8 -71,-40 11,-37 33,11 15,-55 23,11 49,22 29,58 11,1 23,10 34,10 11,-39 -14,-86 -20,-110 1,9 1,21 -2,27 0,0 -16,-22 -31,-44 -15,-23 -29,-46 -29,-46 9,-17 21,-6 32,4 -6,-19 -24,-31 -30,-60 27,4 52,0 71,38 0,0 -3,-5 -7,-14 -4,-8 -9,-19 -14,-30 -10,-22 -19,-45 -19,-45 10,-7 26,-50 37,-39 6,-26 -8,-56 -22,-89 -12,-33 -25,-69 -13,-103 -5,-4 -9,-11 -12,-26 2,-16 6,-32 10,-47 5,-15 9,-30 13,-46 4,-16 6,-32 6,-49 0,-17 -2,-35 -8,-55 0,0 13,-9 26,-18 13,-9 26,-17 26,-17 0,-30 -17,-18 -34,-11 -17,7 -34,9 -33,-42 -1,-73 44,-18 61,-40 -7,-19 -19,-47 -23,-77 -3,-30 4,-61 31,-87 2,23 -9,38 -11,58z"/>
  <path class="fil0" d="M2561 233c-3,-6 -3,-12 -3,-18 -7,4 -8,10 3,18z"/>
  <path class="fil0" d="M643 1084c-1,0 -1,1 -2,2 1,2 2,4 3,5l-2 -7z"/>
  <path class="fil0" d="M4102 1819c2,-14 6,-23 11,-29 -8,1 -13,8 -11,29z"/>
  <path class="fil0" d="M4120 3340c0,0 5,-12 10,-24 5,-12 9,-24 9,-24 -11,22 -21,26 -32,34 7,3 21,0 13,14z"/>
  <path class="fil0" d="M3710 3555c-2,8 -10,11 -11,18l12 9c19,-22 24,-44 -1,-27z"/>
  <path class="fil0" d="M4006 3322c-25,-12 -32,19 -48,49 1,-2 2,-3 3,-5 25,30 36,-7 45,-44z"/>
  <path class="fil0" d="M3954 3378c-5,9 -11,18 -17,26 10,12 10,-9 17,-26z"/>
  <path class="fil0" d="M4234 3044c-13,12 27,23 13,28 12,16 14,-14 10,-36 -4,-22 -13,-36 -23,9z"/>
  <polygon class="fil0" points="3917,3296 3951,3305 3939,3275 "/>
  <path class="fil0" d="M4067 3086l-32 42c5,2 5,9 4,18 16,-28 38,-57 28,-60z"/>
  <path class="fil0" d="M4039 3146c-8,15 -16,29 -16,39 4,-8 13,-26 16,-39z"/>
  <path class="fil0" d="M3947 3231l14 -9 20 -30c0,0 -8,10 -17,20 -8,10 -17,20 -17,20z"/>
  <path class="fil0" d="M4254 2556l1 -58c-10,-8 -20,7 -19,28 5,15 6,36 18,30z"/>
  <path class="fil0" d="M4126 2700c11,-12 18,-11 31,-17l-39 -12 8 29z"/>
  <path class="fil0" d="M4154 2542c-10,-8 -18,-83 -28,-16 11,7 9,63 28,16z"/>
  <polygon class="fil0" points="4197,1714 4200,1728 4266,1712 "/>
  <path class="fil0" d="M3776 1121c19,60 43,-10 56,48 22,4 -10,-47 9,-42 -35,-23 -37,-44 -65,-6z"/>
  <path class="fil0" d="M3840 1126c6,4 12,7 19,11 -10,-7 -15,-10 -19,-11z"/>
  <path class="fil0" d="M2067 4378c0,0 11,5 23,8 12,4 23,8 23,8l-29 -23 -17 8z"/>
  <path class="fil0" d="M2157 4331l10 43 28 -38c-10,2 -30,5 -38,-5z"/>
  <path class="fil0" d="M1690 388l0 -11c-9,-9 -18,-7 -36,-4l36 15z"/>
  <polygon class="fil0" points="1202,572 1210,568 1175,544 "/>
  <path class="fil0" d="M893 884c13,-12 22,-32 36,-43 -23,31 -74,13 -36,43z"/>
  <path class="fil0" d="M1278 1375c-1,22 -3,44 -6,66 -3,22 -6,45 -9,69 -4,22 -9,45 -15,70 -6,24 -14,46 -23,64 -9,16 -19,29 -31,38 -12,9 -25,12 -40,10 -22,-4 -38,-14 -48,-30 -10,-16 -16,-35 -19,-57 -3,-22 -3,-46 -1,-72 2,-26 4,-51 6,-74 -6,20 -12,39 -16,57 -4,18 -8,35 -11,49 -3,14 -5,27 -7,37 -2,10 -3,18 -3,22 -2,3 -5,5 -8,6 -4,1 -9,2 -17,3 -25,3 -46,-1 -61,-13 -16,-12 -28,-27 -38,-48 -9,-20 -17,-43 -22,-70 -5,-26 -9,-53 -13,-80 -3,-27 -7,-53 -10,-78 -3,-25 -9,-46 -16,-64 23,-5 43,-7 59,-7 16,0 29,7 38,20 4,13 8,28 11,48 3,19 6,40 8,63 2,23 4,47 5,72 1,25 3,51 4,77 1,19 4,34 10,45 6,11 15,15 28,12 1,-1 3,-6 4,-17 1,-11 4,-25 7,-42 3,-18 8,-38 14,-62 6,-24 13,-49 24,-76 2,-6 3,-12 5,-16 1,-4 3,-9 7,-14 -1,-1 -1,-2 0,-3 5,-1 10,-1 14,-1 4,0 8,0 12,0l9 -1c9,0 17,2 22,5 5,3 9,11 11,21 3,14 3,31 2,49 -1,19 -3,38 -6,57 -3,20 -6,39 -8,58 -3,19 -4,36 -5,51 0,15 1,27 4,36 3,9 9,13 18,12 21,-1 39,-27 54,-76 15,-49 25,-125 29,-228 6,-4 12,-5 18,-1 6,3 10,7 11,10z"/>
  <path id="1" class="fil0" d="M1559 1518c-4,11 -12,25 -22,41 -10,16 -22,31 -36,46 -14,14 -29,27 -46,37 -17,10 -35,15 -53,15 -15,0 -29,-5 -41,-14 -13,-9 -24,-23 -33,-40 -9,-17 -17,-37 -22,-60 -5,-23 -8,-49 -8,-77 1,-38 6,-68 17,-90 11,-22 24,-38 39,-48 15,-10 31,-15 48,-14 17,1 32,5 45,12 14,9 24,19 32,30 7,11 12,22 16,33 3,11 5,22 5,32 0,10 0,19 -1,25 -3,28 -11,49 -23,64 -12,15 -26,25 -40,31 -15,6 -29,8 -42,7 -13,-1 -22,-4 -26,-8 1,29 5,53 12,71 7,18 19,26 36,26 15,0 30,-6 44,-19 14,-13 28,-27 40,-42 12,-15 22,-30 29,-44 8,-14 12,-22 14,-25 7,-4 11,-5 12,-1 1,4 3,8 4,14zm-123 -176c-9,-1 -17,5 -25,19 -8,14 -15,31 -22,50 -7,19 -12,39 -16,59 -4,20 -6,35 -6,45l0 9c6,2 11,4 14,5 3,2 6,3 8,3 3,0 5,0 8,-1 3,-1 6,-3 10,-7 4,-3 9,-8 13,-16 4,-8 8,-16 12,-25 3,-9 6,-19 8,-29 2,-10 4,-19 5,-28 3,-21 3,-39 3,-53 -1,-14 -5,-24 -14,-31z"/>
  <path id="2" class="fil0" d="M1760 1659c3,7 6,13 8,18 3,5 4,10 4,14 0,4 -1,8 -4,13 -3,5 -7,10 -14,16 -16,12 -31,19 -44,22 -13,3 -26,3 -38,0 -23,-4 -41,-13 -56,-26 -15,-13 -27,-27 -36,-44 -9,-16 -16,-33 -21,-50 -5,-17 -8,-32 -10,-45 -16,-114 -19,-205 -11,-275 8,-70 22,-116 42,-140 3,-4 9,-8 16,-11 8,-3 17,-5 27,-5 10,-1 21,0 32,2 11,2 21,5 32,10 -13,26 -24,58 -34,95 -9,37 -17,75 -23,114 -6,40 -9,79 -11,118 -2,39 -2,74 -1,105 1,9 1,20 2,32 1,13 3,26 6,39 3,13 8,24 15,35 7,10 16,17 27,21 11,1 21,0 31,-3 10,-3 19,-8 27,-15 8,-6 15,-13 21,-20 6,-7 11,-14 14,-21z"/>
  <path id="3" class="fil0" d="M2024 1484c-6,13 -14,31 -25,55 -11,23 -25,46 -41,69 -16,23 -34,42 -53,58 -19,16 -39,24 -61,24 -35,0 -65,-16 -90,-47 -26,-31 -43,-80 -52,-145 -4,-36 -5,-67 -1,-92 4,-25 10,-45 19,-61 9,-16 20,-28 33,-36 13,-8 27,-14 41,-16 14,-3 29,-4 43,-2 14,1 27,3 38,7 13,3 25,10 34,19 10,10 16,21 17,33 3,14 3,27 0,37 -3,10 -6,17 -9,22 -4,5 -8,6 -11,5 -4,-2 -6,-7 -6,-17 0,-3 1,-8 2,-16 1,-7 2,-15 1,-23 0,-8 -2,-15 -5,-22 -3,-7 -9,-11 -17,-13 -21,-5 -38,0 -52,15 -14,15 -25,35 -33,61 -8,26 -12,54 -14,86 -1,32 0,61 5,89 5,28 12,51 23,69 11,19 24,27 40,27 11,0 23,-5 35,-15 12,-10 24,-22 36,-37 12,-15 22,-31 32,-48 10,-17 19,-34 27,-49 8,-16 14,-29 18,-41 4,-12 7,-19 8,-21 9,-2 14,1 16,8 2,7 2,13 -1,18z"/>
  <path id="4" class="fil0" d="M1957 1511c-7,-34 -7,-64 -1,-90 6,-26 16,-48 29,-65 13,-17 30,-30 50,-39 20,-8 40,-12 62,-10 18,1 30,6 37,16 6,9 10,19 10,31 9,0 19,2 28,5 9,3 17,8 23,15 8,28 13,54 13,78 1,24 -2,47 -7,67 9,-1 17,-4 24,-11 7,-7 13,-14 18,-22 5,-8 10,-16 13,-25 3,-8 6,-15 9,-19 3,-5 5,-8 7,-9 2,-1 4,-2 5,-1 1,1 2,2 3,4 1,2 1,4 0,6 0,2 -2,8 -6,18 -4,10 -9,21 -16,32 -7,11 -16,21 -26,31 -11,9 -23,13 -37,13 -12,33 -29,59 -53,76 -23,17 -47,26 -72,25 -25,0 -48,-11 -70,-31 -21,-20 -36,-51 -43,-92zm163 -155c-2,-8 -4,-15 -8,-20 -3,-5 -8,-6 -15,-3 -11,9 -20,22 -28,37 -8,15 -14,31 -19,48 -5,17 -8,34 -10,51 -2,17 -3,33 -3,47 0,16 2,30 7,44 5,13 11,24 18,33 7,8 15,14 23,16 8,3 16,0 23,-7 7,-7 13,-19 17,-36 4,-17 6,-40 6,-71 -11,-12 -19,-25 -26,-40 -7,-15 -10,-31 -10,-47 0,-13 1,-24 3,-33 2,-9 10,-15 22,-18zm-4 78c1,8 3,14 5,19 2,5 3,9 5,12 2,4 4,7 6,8 -1,-16 -3,-31 -4,-44 -1,-11 -2,-21 -3,-31 -1,-9 -1,-14 0,-16 -1,1 -4,7 -7,16 -3,9 -4,21 0,35z"/>
  <path id="5" class="fil0" d="M2248 1343c0,-9 3,-17 9,-23 6,-6 13,-11 22,-14 8,-3 18,-5 28,-6 10,0 19,1 28,3 -5,18 -8,39 -8,62 -1,23 -2,44 -3,63 -1,15 -1,32 0,51 0,19 1,38 3,56 2,19 4,35 8,50 3,15 7,25 12,32 -1,-13 -3,-26 -4,-40 -1,-13 -2,-26 -2,-40 0,-10 1,-25 4,-45 3,-20 7,-40 14,-60 6,-20 14,-38 24,-53 10,-15 22,-24 37,-25 26,-3 45,1 59,10 13,9 23,22 28,38 5,16 8,35 7,56 -1,22 -3,44 -7,66 -4,23 -8,45 -13,66 -5,22 -8,41 -9,58 -2,17 -1,30 2,40 3,10 10,15 22,14 1,-1 1,-6 1,-16 0,-10 1,-24 2,-41 1,-17 3,-38 7,-61 3,-24 8,-49 15,-77 8,-29 16,-58 24,-84 8,-27 18,-50 30,-70 11,-20 24,-35 39,-46 15,-11 32,-16 52,-14 26,2 45,8 56,19 12,11 19,25 22,42 3,17 2,36 -3,57 -4,21 -10,42 -18,64 -8,22 -15,43 -24,64 -8,21 -14,39 -19,56 -4,17 -6,30 -5,40 1,10 8,16 19,17 6,1 13,-2 22,-8 8,-6 16,-15 25,-25 8,-10 17,-22 25,-35 8,-13 16,-26 24,-40l15 15c-8,14 -16,28 -25,42 -9,14 -19,27 -30,38 -11,11 -22,20 -33,26 -11,6 -23,8 -34,7 -20,-4 -35,-12 -45,-24 -10,-12 -16,-27 -18,-44 -2,-17 -2,-36 1,-57 3,-21 7,-42 12,-64 5,-21 11,-42 17,-62 6,-20 11,-38 15,-53 3,-15 5,-28 4,-37 -1,-9 -5,-14 -13,-14 -9,-1 -17,3 -26,12 -8,8 -17,19 -25,33 -8,13 -16,29 -23,46 -7,17 -14,35 -20,52 -6,18 -11,34 -16,50 -4,16 -8,29 -9,40 -4,21 -8,40 -9,58 -2,18 -3,35 -5,49 -1,15 -2,27 -3,37 -1,10 -2,18 -4,23 -1,4 -5,6 -12,6 -7,0 -13,0 -19,0 -27,-2 -46,-12 -58,-30 -12,-18 -19,-40 -22,-66 -3,-26 -3,-54 0,-84 3,-30 6,-58 9,-82 3,-25 4,-45 3,-62 -1,-16 -6,-24 -16,-22 -11,3 -21,12 -28,26 -7,14 -13,31 -18,48 -5,18 -8,36 -10,53 -2,18 -3,31 -3,40 0,13 1,25 2,37 2,12 3,23 3,33 1,10 0,19 -1,25 -1,7 -5,11 -10,13 -7,3 -13,2 -19,-3 -6,-4 -10,-8 -12,-12 -8,-16 -16,-31 -23,-46 -7,-15 -14,-31 -20,-48 -6,-17 -11,-37 -16,-60 -4,-23 -8,-50 -10,-81 -1,-13 -2,-23 -3,-32 -1,-8 -1,-19 -1,-32z"/>
  <path id="6" class="fil0" d="M3047 1518c-4,11 -12,25 -22,41 -10,16 -22,31 -36,46 -14,14 -29,27 -46,37 -17,10 -35,15 -53,15 -15,0 -29,-5 -41,-14 -13,-9 -24,-23 -33,-40 -9,-17 -17,-37 -22,-60 -5,-23 -8,-49 -8,-77 1,-38 6,-68 17,-90 11,-22 24,-38 39,-48 15,-10 31,-15 48,-14 17,1 32,5 45,12 14,9 24,19 32,30 7,11 12,22 16,33 3,11 5,22 5,32 0,10 0,19 -1,25 -3,28 -11,49 -23,64 -12,15 -26,25 -40,31 -15,6 -29,8 -42,7 -13,-1 -22,-4 -26,-8 1,29 5,53 12,71 7,18 19,26 36,26 15,0 30,-6 44,-19 14,-13 28,-27 40,-42 12,-15 22,-30 29,-44 8,-14 12,-22 14,-25 7,-4 11,-5 12,-1 1,4 3,8 4,14zm-123 -176c-9,-1 -17,5 -25,19 -8,14 -15,31 -22,50 -7,19 -12,39 -16,59 -4,20 -6,35 -6,45l0 9c6,2 11,4 14,5 3,2 6,3 8,3 3,0 5,0 8,-1 3,-1 6,-3 10,-7 4,-3 9,-8 13,-16 4,-8 8,-16 12,-25 3,-9 6,-19 8,-29 2,-10 4,-19 5,-28 3,-21 3,-39 3,-53 -1,-14 -5,-24 -14,-31z"/>
  <path id="7" class="fil0" d="M3454 1605c-9,14 -20,27 -32,39 -12,12 -24,22 -36,31 -12,9 -24,16 -37,21 -12,5 -24,8 -34,8 -21,-1 -39,-7 -53,-18 -14,-12 -25,-25 -34,-41 -8,-16 -15,-33 -19,-50 -4,-18 -8,-33 -9,-45 -8,-59 -13,-112 -15,-158 -2,-46 0,-88 3,-123 -21,3 -39,3 -53,-2 -11,-3 -17,-7 -19,-13 -2,-6 -3,-12 -1,-18 1,-6 3,-11 7,-16 3,-4 5,-6 5,-6 3,4 6,8 10,11 4,3 9,6 15,8 6,3 13,4 22,6l19 2c8,-50 20,-86 38,-106 4,-4 10,-8 17,-11 8,-3 17,-5 27,-6 10,-1 21,0 32,2 11,2 21,5 32,10 -7,13 -13,28 -19,43 -6,16 -11,33 -15,51 18,-6 34,-12 50,-19 16,-7 31,-14 45,-20 14,-6 28,-11 41,-14 13,-3 26,-5 39,-3 19,3 32,9 38,19 6,10 8,21 7,33 -1,14 -6,29 -13,46 -7,-8 -17,-14 -29,-20 -11,-5 -25,-9 -43,-11 -18,-3 -40,-2 -67,1 -13,2 -26,4 -38,6 -12,2 -24,4 -36,6 -6,26 -11,53 -15,80 -4,28 -8,56 -10,83 -2,27 -4,54 -4,80 -1,26 0,49 1,71 1,9 1,19 1,32 0,13 2,25 5,37 3,12 7,23 13,32 6,9 15,16 26,20 9,2 19,0 31,-5 12,-5 24,-13 36,-22 12,-9 24,-19 35,-30 11,-11 20,-21 28,-30 1,2 3,3 6,2 3,0 4,3 3,9z"/>
  <path id="8" class="fil0" d="M3348 1511c-7,-34 -7,-64 -1,-90 6,-26 16,-48 29,-65 13,-17 30,-30 50,-39 20,-8 40,-12 62,-10 18,1 30,6 37,16 6,9 10,19 10,31 9,0 19,2 28,5 9,3 17,8 23,15 8,28 13,54 13,78 1,24 -2,47 -7,67 9,-1 17,-4 24,-11 7,-7 13,-14 18,-22 5,-8 10,-16 13,-25 3,-8 6,-15 9,-19 3,-5 5,-8 7,-9 2,-1 4,-2 5,-1 1,1 2,2 3,4 1,2 1,4 0,6 0,2 -2,8 -6,18 -4,10 -9,21 -16,32 -7,11 -16,21 -26,31 -11,9 -23,13 -37,13 -12,33 -29,59 -53,76 -23,17 -47,26 -72,25 -25,0 -48,-11 -70,-31 -21,-20 -36,-51 -43,-92zm163 -155c-2,-8 -4,-15 -8,-20 -3,-5 -8,-6 -15,-3 -11,9 -20,22 -28,37 -8,15 -14,31 -19,48 -5,17 -8,34 -10,51 -2,17 -3,33 -3,47 0,16 2,30 7,44 5,13 11,24 18,33 7,8 15,14 23,16 8,3 16,0 23,-7 7,-7 13,-19 17,-36 4,-17 6,-40 6,-71 -11,-12 -19,-25 -26,-40 -7,-15 -10,-31 -10,-47 0,-13 1,-24 3,-33 2,-9 10,-15 22,-18zm-4 78c1,8 3,14 5,19 2,5 3,9 5,12 2,4 4,7 6,8 -1,-16 -3,-31 -4,-44 -1,-11 -2,-21 -3,-31 -1,-9 -1,-14 0,-16 -1,1 -4,7 -7,16 -3,9 -4,21 0,35z"/>
  <path class="fil0" d="M787 2074c-3,2 -6,8 -11,20 -4,12 -11,24 -21,36 -9,12 -22,22 -37,29 -15,8 -35,7 -59,-2 -15,-6 -30,-18 -43,-38 -13,-19 -21,-42 -23,-67 -2,-26 3,-53 15,-81 12,-28 34,-55 67,-80 33,-25 74,-42 123,-52 49,-9 101,-15 157,-18 55,-3 112,-4 169,-4 57,-1 111,-3 159,-9 50,-6 89,-16 119,-31 29,-15 52,-31 68,-47 16,-16 26,-30 31,-41 5,-12 8,-17 8,-16 0,1 3,8 8,19 5,12 10,27 15,45 4,18 7,38 7,59 0,21 -4,41 -14,60 -9,18 -26,35 -49,48 -23,13 -55,21 -97,24 -36,3 -73,3 -112,-1 -38,-3 -77,-9 -114,-19 4,47 8,90 10,127 3,37 4,76 4,115 0,39 -1,83 -2,129 -2,46 -4,102 -6,167 25,3 47,3 64,1 28,-4 52,-8 74,-13 22,-5 40,-11 55,-18 17,-7 33,-15 46,-24 6,22 7,43 4,62 -2,16 -8,32 -18,49 -10,16 -28,27 -54,33 -28,7 -58,8 -89,2 -31,-6 -59,-15 -85,-25 -10,151 -25,277 -45,376 -21,99 -46,177 -75,235 -29,58 -62,98 -100,121 -37,23 -77,34 -120,33 -29,-1 -56,-13 -80,-38 -25,-25 -46,-58 -64,-98 -18,-40 -32,-84 -43,-133 -11,-48 -18,-95 -19,-141 -2,-45 2,-87 11,-125 9,-38 24,-66 45,-84 31,-26 60,-42 86,-48 26,-6 48,-7 66,-2 21,4 40,14 55,30 -8,12 -17,25 -27,40 -8,14 -17,32 -26,54 -9,21 -18,47 -25,76 -5,19 -10,43 -16,73 -6,30 -12,61 -16,94 -4,33 -7,66 -7,99 0,33 3,62 9,87 6,26 16,45 31,58 15,13 36,16 63,9 19,-4 34,-24 47,-59 12,-35 23,-80 31,-135 8,-55 14,-118 18,-188 4,-70 5,-143 5,-219 0,-76 -2,-151 -5,-227 -3,-75 -6,-146 -12,-212 -5,-66 -10,-125 -17,-177 -6,-52 -13,-91 -20,-119 -40,-3 -80,-1 -119,8 -39,9 -69,34 -90,75 -10,21 -11,38 -3,51 9,12 20,22 34,29 14,7 28,12 41,16 13,3 18,5 16,7z"/>
  <path id="1" class="fil0" d="M2018 3048c8,15 14,28 21,39 6,11 9,21 9,30 1,9 -2,19 -7,30 -5,11 -15,24 -30,38 -36,28 -68,46 -98,53 -29,8 -58,9 -85,4 -51,-8 -94,-26 -129,-54 -35,-27 -63,-59 -85,-95 -22,-36 -39,-73 -51,-110 -12,-38 -21,-71 -26,-101 -44,-254 -60,-460 -48,-617 13,-157 41,-264 84,-319 7,-10 19,-19 36,-26 17,-7 37,-11 61,-14 23,-2 47,-2 72,2 25,3 49,10 72,21 -27,60 -50,132 -68,215 -18,83 -32,170 -41,259 -9,90 -15,178 -16,267 -1,88 1,167 6,236 2,20 4,44 7,73 2,29 8,58 16,86 8,29 20,54 36,77 16,23 36,38 62,45 24,2 47,-1 69,-10 22,-8 41,-20 59,-35 18,-15 33,-30 46,-47 13,-16 22,-33 29,-48z"/>
  <path id="2" class="fil0" d="M1852 2718c-18,-76 -22,-143 -11,-203 11,-60 31,-110 60,-150 29,-40 65,-70 109,-91 44,-21 90,-30 138,-27 41,1 69,12 84,32 15,20 24,43 26,68 21,-1 42,2 64,8 21,7 39,17 52,32 21,62 33,119 36,174 3,54 0,105 -10,152 20,-2 37,-11 52,-26 15,-15 28,-33 40,-51 11,-19 20,-38 28,-57 7,-19 13,-34 18,-44 5,-12 10,-19 15,-22 5,-3 8,-4 11,-2 3,1 5,4 7,8 2,4 2,8 1,13 0,4 -4,18 -11,41 -8,23 -19,48 -33,74 -15,26 -34,50 -57,71 -23,21 -50,32 -81,32 -24,76 -62,134 -112,175 -51,41 -105,62 -161,63 -56,1 -109,-20 -159,-63 -49,-43 -85,-111 -105,-204zm354 -362c-5,-18 -11,-33 -19,-45 -7,-12 -19,-14 -34,-6 -23,22 -43,51 -60,85 -16,34 -29,71 -38,109 -9,38 -16,77 -19,116 -3,39 -5,74 -4,105 1,35 8,68 19,98 12,30 26,54 43,72 17,18 35,30 53,35 19,5 35,0 50,-17 15,-16 27,-44 35,-82 8,-38 11,-91 7,-159 -25,-26 -46,-55 -62,-89 -16,-34 -25,-69 -26,-105 -1,-30 0,-55 5,-75 4,-21 20,-35 48,-43zm-2 176c4,17 8,31 12,42 5,11 8,20 11,27 5,9 9,15 13,19 -4,-37 -8,-70 -12,-99 -4,-25 -7,-48 -10,-69 -3,-20 -4,-32 -3,-35 -2,3 -8,15 -14,36 -7,21 -6,48 2,78z"/>
  <path id="3" class="fil0" d="M2989 2106c38,0 67,6 86,18 20,12 33,27 40,44 7,17 9,36 6,56 -3,20 -8,38 -15,54 -7,16 -15,29 -24,39 -9,10 -15,13 -20,9 -6,-4 -12,-15 -17,-31 -6,-17 -13,-34 -23,-51 -10,-17 -23,-32 -40,-43 -17,-11 -39,-14 -67,-7 -27,7 -50,19 -70,37 -20,19 -36,39 -48,62 -13,23 -23,46 -31,69 -8,23 -13,43 -17,60 -21,95 -28,193 -22,292 6,99 15,204 27,314 0,7 -2,13 -7,19 -5,6 -11,9 -20,11 -8,2 -18,0 -27,-4 -10,-4 -19,-14 -27,-27 -45,-103 -81,-221 -109,-353 -28,-133 -38,-267 -28,-405 1,-21 9,-40 27,-56 17,-16 38,-29 61,-37 24,-9 49,-13 76,-12 27,1 50,7 70,21 -4,16 -9,37 -17,63 -8,26 -12,58 -13,94 8,-40 23,-74 43,-102 20,-28 42,-52 67,-70 24,-19 48,-33 72,-43 24,-10 46,-17 66,-20z"/>
  <path id="4" class="fil0" d="M3235 1874c25,-15 47,-18 65,-8 19,10 33,26 41,48 9,22 11,47 8,73 -3,26 -14,48 -34,66 -14,13 -28,24 -43,31 -15,8 -29,13 -43,15 -13,3 -24,4 -32,3 -8,0 -12,-2 -12,-5 1,-5 8,-10 20,-18 12,-7 24,-16 38,-25 14,-9 26,-19 36,-29 10,-10 15,-20 13,-30 -1,3 -3,5 -6,7 -3,1 -6,3 -9,5 -4,2 -8,2 -14,3 -13,1 -24,-4 -36,-14 -11,-9 -19,-20 -26,-33 -6,-14 -6,-29 0,-47 6,-17 18,-32 32,-44z"/>
  <path id="5" class="fil0" d="M3900 2690c16,2 23,6 20,11 -2,5 -8,13 -19,25 -26,4 -59,10 -98,19 -39,9 -69,19 -91,30 69,156 90,279 63,371 -27,91 -107,153 -240,187 -29,8 -63,13 -101,14 -38,1 -74,-3 -107,-12 -33,-9 -62,-25 -85,-47 -23,-22 -36,-52 -37,-90 -1,-38 7,-75 24,-111 18,-36 41,-70 71,-103 30,-33 64,-63 101,-90 37,-28 74,-52 110,-73 -28,-50 -55,-101 -83,-155 -28,-53 -53,-105 -74,-155 -22,-50 -38,-97 -51,-140 -12,-43 -16,-80 -12,-110 2,-16 7,-34 13,-54 7,-21 16,-40 30,-58 14,-18 31,-34 52,-49 21,-14 49,-23 83,-27 67,-8 128,0 181,23 53,23 92,55 117,95 25,40 32,86 22,138 -10,52 -45,102 -103,151 -7,7 -16,12 -27,14 -11,2 -21,2 -31,1 -9,-1 -17,-4 -23,-8 -6,-4 -7,-10 -3,-17 16,-30 27,-68 32,-113 6,-45 3,-88 -5,-128 -9,-40 -27,-73 -52,-98 -25,-25 -60,-34 -107,-25 -8,2 -21,9 -37,22 -17,13 -30,30 -40,54 -10,24 -13,52 -9,85 3,33 21,71 52,114 79,106 138,187 179,243 41,56 67,94 80,114 36,-12 75,-23 115,-31 41,-8 71,-14 90,-17zm-514 607c34,-1 63,-7 85,-19 23,-11 41,-26 56,-43 14,-18 25,-37 33,-59 8,-22 14,-44 19,-66 2,-16 2,-33 0,-53 -2,-20 -6,-40 -11,-62 -5,-22 -11,-43 -19,-65 -8,-22 -15,-42 -21,-60 -25,12 -54,32 -87,59 -33,27 -64,57 -93,90 -29,33 -53,66 -73,99 -19,33 -28,61 -27,83 1,30 13,53 36,71 24,17 58,25 103,24z"/>
  <path class="fil0" d="M1857 3629c6,0 10,1 12,2 2,2 2,6 1,14 -18,11 -34,21 -50,32 -16,10 -29,20 -41,28 2,51 0,99 -6,144 -7,46 -16,88 -29,126 -12,31 -27,55 -46,71 -19,16 -39,26 -60,31 -21,5 -41,6 -61,3 -20,-3 -37,-7 -51,-12 -4,-2 -9,-5 -14,-9 -6,-5 -10,-11 -14,-20 -3,-9 -5,-20 -5,-33 0,-13 4,-29 13,-47 10,-24 24,-48 42,-73 18,-25 37,-48 56,-70 19,-22 38,-42 55,-59 18,-18 31,-31 41,-40 3,-20 4,-44 4,-71 0,-27 -3,-55 -9,-83 -6,-28 -14,-55 -26,-81 -12,-25 -27,-46 -46,-63 -13,-2 -25,1 -35,10 -10,9 -19,21 -27,37 -8,15 -14,33 -18,53 -5,20 -8,40 -10,59 -2,19 -2,39 -3,59 0,20 1,38 3,54 2,16 6,29 12,37 6,9 13,12 22,9 16,-5 29,-14 37,-29 9,-15 16,-30 20,-47 5,-17 8,-33 9,-48 2,-15 3,-26 3,-33 20,3 34,10 41,20 8,10 11,22 10,35 -1,13 -6,27 -14,41 -8,15 -19,28 -32,40 -13,12 -28,22 -44,29 -16,8 -32,11 -47,10 -28,-2 -50,-12 -66,-33 -16,-20 -27,-44 -35,-72 -7,-28 -11,-56 -11,-84 0,-28 2,-51 5,-68 2,-15 7,-33 14,-52 7,-20 17,-37 30,-52 13,-15 29,-26 48,-32 19,-7 42,-5 69,4 32,13 57,39 75,77 0,-2 -1,-8 -2,-16 -2,-8 -3,-18 -4,-28 -1,-10 -2,-21 -4,-31 -2,-10 -2,-18 -2,-24 3,-5 5,-8 6,-10 1,-2 7,0 18,6 18,39 32,76 42,110 10,34 18,65 24,94 6,28 10,54 12,77 2,23 5,42 7,57 8,-7 20,-15 36,-23 15,-8 31,-17 46,-26zm-314 310c-6,9 -12,20 -16,31 -5,12 -8,22 -10,32 -2,10 -2,17 -1,24 2,6 5,9 10,9 21,-2 42,-10 60,-25 19,-15 35,-35 50,-59 14,-25 26,-54 37,-87 10,-33 18,-69 24,-108 -15,12 -29,25 -41,38 -12,13 -24,27 -36,41 -12,15 -24,30 -36,47 -12,17 -26,36 -40,56z"/>
  <path id="1" class="fil0" d="M2034 3626c-3,8 -6,20 -10,34 -3,14 -8,28 -14,41 -6,13 -12,25 -20,36 -8,10 -17,16 -28,18 -14,2 -27,2 -40,-1 -13,-3 -25,-10 -36,-20 -11,-10 -21,-24 -29,-43 -9,-19 -16,-43 -21,-73 -8,-41 -8,-78 -1,-111 7,-32 19,-59 36,-80 17,-21 37,-37 62,-47 24,-10 49,-14 75,-12 18,2 32,6 40,14 8,8 14,17 16,28 2,11 3,22 1,33 -2,12 -3,21 -3,28 -2,4 -4,6 -8,5 -4,0 -8,-2 -12,-5 -1,-3 -2,-9 -2,-18 -1,-9 -2,-18 -5,-28 -2,-9 -6,-17 -10,-22 -4,-6 -10,-7 -18,-4 -13,12 -24,26 -33,45 -9,18 -17,38 -22,59 -6,21 -10,42 -13,63 -3,21 -4,40 -4,57 0,5 0,14 1,25 0,11 2,22 3,34 2,12 5,22 9,31 4,9 10,13 18,13 6,0 12,-5 17,-16 5,-11 10,-24 15,-40 5,-16 9,-34 13,-54 4,-20 8,-38 12,-55 4,-17 7,-32 10,-44 3,-13 6,-20 9,-22l2 0c4,0 9,1 16,4 7,3 13,6 20,9 7,3 12,7 17,10 5,3 7,6 7,9 0,8 -1,19 -3,35 -2,15 -5,32 -9,51 -3,18 -6,37 -9,57 -2,20 -3,37 -2,53 1,16 5,29 11,39 6,10 16,16 29,16 5,0 11,-4 18,-12 7,-8 13,-17 18,-28 6,-10 11,-21 15,-31 4,-10 7,-18 9,-22 5,-7 10,-9 13,-6 3,3 5,7 5,14 0,2 -2,9 -5,21 -3,12 -9,23 -16,36 -7,12 -16,24 -26,34 -10,10 -22,16 -34,16 -18,0 -32,-6 -42,-19 -10,-13 -18,-28 -24,-47 -5,-18 -9,-37 -11,-56 -2,-19 -3,-35 -3,-48l-3 0z"/>
  <path id="2" class="fil0" d="M2413 3312c21,1 36,5 47,12 10,7 17,15 21,25 3,10 4,20 2,31 -2,11 -5,20 -9,29 -4,8 -9,15 -14,21 -5,5 -9,7 -11,5 -3,-2 -6,-8 -9,-17 -3,-9 -7,-19 -12,-28 -5,-10 -12,-18 -21,-24 -9,-7 -21,-8 -36,-5 -15,3 -27,9 -39,19 -11,10 -20,21 -28,33 -7,12 -13,25 -18,37 -5,12 -8,23 -10,32 -13,51 -19,104 -18,158 1,54 4,111 9,171 0,4 -1,7 -4,10 -3,3 -6,5 -11,6 -5,1 -10,0 -15,-3 -5,-3 -10,-8 -14,-16 -22,-57 -40,-121 -52,-194 -13,-73 -15,-146 -7,-220 1,-12 6,-21 16,-30 10,-8 21,-15 34,-19 13,-4 27,-6 41,-5 15,1 27,5 38,13 -2,8 -6,20 -10,34 -5,14 -8,31 -9,51 5,-21 14,-40 25,-55 12,-15 24,-27 37,-37 13,-10 27,-17 40,-22 13,-5 26,-8 36,-10z"/>
  <path id="3" class="fil0" d="M2907 3664c5,4 9,6 12,6 3,0 5,4 5,10 0,8 -5,20 -16,37 -11,17 -24,35 -39,54 -15,18 -31,35 -47,50 -16,15 -31,23 -42,24 -24,0 -41,-11 -52,-34 -11,-23 -19,-49 -24,-80 -5,-31 -8,-61 -10,-92 -2,-30 -4,-54 -8,-70 -2,-8 -5,-17 -8,-26 -3,-10 -7,-19 -11,-28 -4,-8 -9,-16 -16,-22 -6,-7 -13,-11 -21,-12 -13,-3 -25,0 -36,8 -11,8 -21,20 -29,35 -9,15 -16,32 -22,51 -6,19 -11,38 -14,56 -3,19 -5,39 -7,59 -2,20 -2,39 -1,55 1,16 4,29 9,38 5,9 12,13 22,10 16,-4 29,-13 39,-26 10,-14 18,-29 23,-45 5,-17 9,-32 12,-48 2,-15 4,-26 6,-33 12,5 23,11 33,20 11,8 16,17 16,25 0,10 -4,22 -12,37 -8,15 -19,29 -32,43 -13,14 -29,25 -47,34 -18,9 -37,12 -56,10 -28,-3 -49,-15 -63,-37 -15,-21 -24,-46 -29,-74 -5,-28 -7,-56 -5,-84 2,-28 5,-51 9,-68 3,-15 9,-32 18,-51 9,-19 20,-35 34,-50 14,-14 31,-24 50,-29 20,-5 42,-2 67,9 31,14 54,41 70,82 -2,-10 -2,-25 -2,-46 0,-21 2,-44 5,-70 3,-26 6,-52 10,-79 4,-27 10,-53 16,-77 7,-24 14,-44 22,-60 8,-17 18,-27 29,-31 9,-3 20,-4 32,-3 12,1 23,4 34,7 11,4 20,8 27,13 7,5 11,9 11,13 -3,1 -8,10 -14,26 -7,17 -14,39 -21,67 -8,28 -16,59 -24,95 -8,36 -17,73 -24,111 -8,38 -14,76 -20,113 -6,37 -10,72 -12,103 -2,31 -2,58 -1,81 2,22 7,37 14,45 5,5 11,4 20,-1 9,-5 18,-13 29,-23 10,-10 21,-23 31,-37 10,-14 20,-28 29,-40 9,-13 16,-24 22,-34 6,-10 9,-16 9,-18z"/>
  <path id="4" class="fil0" d="M3170 3626c-5,14 -14,31 -26,50 -12,20 -27,38 -44,56 -17,18 -36,33 -56,45 -21,12 -42,18 -64,18 -18,0 -35,-6 -51,-17 -15,-12 -29,-28 -40,-48 -12,-21 -20,-45 -26,-74 -6,-28 -9,-60 -9,-94 1,-46 8,-83 21,-110 13,-27 29,-47 48,-59 18,-12 38,-18 59,-17 21,1 39,6 55,15 17,11 30,23 39,36 9,13 15,27 19,41 4,14 6,27 6,40 0,13 0,23 -1,31 -4,34 -13,60 -28,78 -15,18 -31,31 -50,37 -18,7 -35,10 -51,8 -16,-2 -27,-5 -32,-10 1,36 6,65 14,86 9,21 24,32 44,32 18,0 36,-8 54,-23 18,-15 34,-32 48,-51 15,-19 26,-37 36,-54 9,-17 15,-27 17,-31 8,-5 13,-6 15,-1 2,5 3,10 5,17zm-151 -215c-11,-2 -21,6 -31,24 -10,17 -18,38 -26,62 -8,24 -14,48 -19,72 -5,24 -7,42 -7,55l0 12c8,2 13,4 17,6 4,2 7,3 10,3 3,0 6,0 9,-2 3,-2 7,-4 13,-8 5,-4 11,-10 16,-20 5,-9 10,-20 14,-31 4,-12 8,-23 10,-36 3,-12 5,-24 6,-35 3,-26 4,-48 3,-65 -1,-17 -7,-30 -17,-37z"/>
  <path id="5" class="fil0" d="M3127 3413c0,-12 3,-21 10,-28 7,-7 16,-13 26,-17 11,-4 22,-7 35,-7 12,0 24,1 35,4 -6,22 -10,48 -10,76 -1,28 -2,54 -3,77 -1,18 -1,39 -1,63 0,23 2,46 4,69 2,23 5,43 9,61 4,18 9,31 15,39 -2,-16 -4,-32 -6,-48 -2,-16 -2,-32 -2,-48 0,-12 2,-31 5,-55 3,-25 9,-49 17,-74 8,-25 18,-46 30,-65 12,-19 27,-29 45,-31 31,-3 55,1 72,12 17,11 28,26 35,46 7,20 9,43 8,69 -1,26 -4,54 -9,81 -5,28 -10,55 -15,81 -5,26 -9,50 -12,71 -2,21 -2,37 2,50 4,12 13,18 26,17 8,0 17,-5 25,-14 8,-9 17,-21 25,-35 8,-14 16,-30 24,-48 8,-18 15,-35 21,-52l21 14c-6,18 -13,37 -22,56 -8,19 -18,36 -28,52 -10,16 -22,28 -34,38 -12,10 -26,14 -40,14 -33,0 -57,-11 -71,-33 -15,-22 -24,-49 -27,-81 -3,-32 -3,-66 1,-104 4,-37 7,-71 11,-102 3,-31 5,-57 3,-77 -1,-20 -8,-29 -20,-27 -13,4 -24,15 -33,32 -9,18 -17,37 -22,59 -5,22 -9,44 -12,65 -2,21 -3,38 -3,49 0,15 1,30 2,45 2,15 3,28 3,40 1,12 0,23 -1,31 -2,8 -5,14 -12,16 -8,3 -16,2 -24,-3 -7,-5 -12,-10 -16,-15 -10,-19 -19,-38 -28,-56 -9,-18 -17,-38 -24,-59 -7,-21 -13,-45 -18,-73 -5,-28 -10,-61 -13,-99 -2,-15 -3,-28 -3,-39 -1,-10 -1,-23 -1,-39z"/>
  <g id="_893278860384">
   <path class="fil0" d="M2753 621c51,-24 101,-46 145,-83 16,-13 31,-26 45,-4 22,34 24,68 12,105 -14,41 -50,100 -87,123 -5,3 -12,0 -11,-7 4,-27 21,-48 36,-71 13,-19 25,-37 35,-57 7,-14 10,-30 9,-46 -2,-13 -7,-25 -15,-35 -50,41 -99,79 -166,86 -7,1 -9,-9 -3,-12z"/>
   <g>
    <path class="fil0" d="M2620 1019c99,-3 191,-3 287,-34 107,-34 137,-118 147,-215 -44,15 -93,15 -137,33 -82,34 -152,92 -232,130 -18,9 -32,-18 -17,-30 58,-42 122,-80 185,-113 33,-17 65,-32 100,-42 35,-10 77,0 110,-19 13,-7 28,1 27,16 -8,103 -28,195 -123,251 -100,58 -240,75 -349,38 -8,-3 -6,-16 3,-16z"/>
    <g>
     <g>
      <path class="fil0" d="M2340 1019c-157,39 -358,-15 -413,-182 -29,-88 4,-183 68,-245 64,-61 151,-64 232,-50 11,13 31,18 47,4 56,-49 143,-42 213,-41 110,3 181,69 183,180 4,173 -185,297 -331,333zm-134 -729c16,-6 31,-10 47,-12 -4,45 -12,93 -1,136 -6,11 -11,22 -15,34 -3,-5 -8,-10 -12,-15 -10,-31 -27,-59 -35,-92 -5,-23 -10,-41 16,-51zm112 101c28,-32 63,-45 102,-53 2,36 -10,65 -19,98 -50,3 -99,14 -140,39 18,-29 34,-58 56,-84zm417 241c-21,-102 -93,-176 -199,-189 -28,-4 -59,-7 -91,-7 21,-37 20,-89 13,-127 -2,-12 -15,-16 -25,-14 -53,8 -96,22 -136,60 -5,5 -10,11 -15,16 6,-37 7,-76 10,-112 1,-10 -9,-18 -19,-19 -36,-2 -126,10 -127,60 -1,24 3,52 11,78 -46,-25 -100,-26 -150,-41 -13,-4 -30,7 -29,22 4,49 33,118 92,115 8,0 16,-10 10,-18 -17,-25 -38,-41 -49,-66 38,8 76,12 110,31 25,13 41,42 61,63 -173,-41 -337,118 -340,294 -4,242 273,335 472,306 197,-29 448,-228 401,-452z"/>
      <path class="fil0" d="M1927 1018c-100,-4 -194,-4 -290,-35 -109,-35 -138,-120 -149,-220 44,15 94,15 139,34 83,34 154,94 235,134 18,9 32,-19 17,-30 -58,-43 -123,-82 -187,-116 -33,-18 -65,-32 -102,-43 -36,-10 -78,0 -111,-19 -13,-8 -29,1 -27,17 9,106 28,199 125,256 101,60 243,77 353,39 8,-3 6,-16 -3,-16z"/>
      <path class="fil0" d="M1876 966c-15,-8 -30,-15 -45,-22 -9,-15 -19,-27 -34,-36 -3,-2 -6,-2 -8,-1 0,0 0,0 0,0 -5,-2 -10,4 -6,9 0,0 0,0 0,0 0,2 1,5 2,6 0,0 1,1 1,1 -14,-6 -28,-13 -42,-19 -9,-15 -19,-29 -31,-42 -11,-12 -28,-30 -46,-30 -4,0 -6,3 -5,7 4,13 19,25 28,35 4,4 7,8 10,12 -36,-16 -73,-31 -109,-47 -8,-3 -13,7 -7,12 25,23 54,43 84,61 -3,1 -6,2 -9,3 -5,2 -5,9 -1,12 10,7 18,9 31,9 6,0 12,-1 18,-2 1,0 1,0 2,0 26,12 52,23 79,31 0,3 1,6 5,6 8,1 14,1 20,0 20,5 40,8 59,9 8,1 10,-10 3,-13z"/>
      <path class="fil0" d="M1493 1045c-57,-18 -117,-16 -175,-31 -69,-18 -107,-61 -143,-114 81,-2 163,6 243,0 11,-1 9,-16 0,-18 -89,-17 -184,-16 -275,-13 -14,0 -15,17 -10,26 37,60 66,102 129,137 64,35 158,49 229,33 9,-2 13,-17 2,-20z"/>
      <path class="fil0" d="M1515 962c-20,-7 -42,-11 -64,-14 -11,-17 -32,-26 -52,-32 -10,-3 -16,11 -6,15 10,4 20,8 29,14 -45,-3 -91,-1 -131,1 -10,1 -8,15 0,16 43,10 94,19 142,22 -3,4 -9,7 -16,7 -5,0 -7,5 -3,8 16,14 36,3 43,-14 19,0 38,-1 56,-4 9,-2 12,-16 2,-19z"/>
      <path class="fil0" d="M1847 632c-52,-25 -102,-47 -147,-85 -16,-14 -31,-27 -46,-4 -22,34 -24,70 -12,107 14,42 51,103 88,125 5,3 12,0 11,-7 -4,-28 -21,-50 -36,-72 -13,-19 -26,-38 -36,-59 -7,-15 -10,-30 -9,-47 2,-14 7,-26 15,-36 50,42 100,81 168,88 7,1 9,-9 3,-12z"/>
      <path class="fil0" d="M1837 760c-6,-13 -14,-25 -22,-36 0,-1 0,-1 -1,-2l0 0c-2,-5 -5,-7 -9,-10l0 0c0,-1 0,-2 -1,-3 1,-2 2,-4 2,-6 1,-4 2,-8 3,-12 1,-3 0,-7 1,-10 3,-10 -10,-18 -16,-9 -3,4 -6,5 -8,10 -1,1 -1,3 -1,4 -13,-16 -26,-31 -42,-45 -5,-5 -14,3 -11,9 9,16 20,31 31,45 -4,-1 -9,-2 -13,-1 -9,1 -12,12 -7,18 7,9 19,14 29,19 9,5 18,10 27,10 9,10 18,19 29,28 5,4 12,-2 9,-7z"/>
     </g>
     <path class="fil0" d="M2671 968c15,-7 30,-14 45,-21 8,-14 19,-27 34,-35 3,-2 6,-2 8,-1 0,0 0,0 0,0 5,-2 10,4 6,8 0,0 0,0 0,0 0,2 -1,4 -2,6 0,0 -1,1 -1,1 14,-6 28,-13 42,-19 9,-15 19,-28 30,-41 11,-12 28,-30 45,-30 4,0 6,3 5,6 -4,13 -19,24 -28,34 -4,4 -7,8 -10,12 36,-15 72,-30 107,-46 8,-3 12,7 7,12 -25,22 -53,42 -83,60 3,1 6,2 9,3 5,2 5,9 1,11 -10,7 -18,9 -30,8 -6,0 -12,-1 -18,-2 -1,0 -1,0 -2,0 -25,12 -52,22 -78,30 0,3 -1,6 -5,6 -7,1 -14,1 -20,0 -20,4 -39,7 -59,9 -8,1 -10,-10 -3,-13z"/>
     <path class="fil0" d="M3049 1046c56,-18 116,-15 173,-30 68,-17 105,-59 141,-111 -80,-2 -161,5 -240,0 -11,-1 -9,-16 0,-18 88,-17 182,-15 271,-12 13,0 15,17 10,25 -37,59 -65,100 -127,133 -64,34 -156,48 -226,32 -9,-2 -12,-16 -2,-20z"/>
     <path class="fil0" d="M3028 964c20,-7 41,-11 63,-14 11,-16 32,-25 51,-31 10,-3 16,11 6,15 -10,4 -20,8 -28,14 44,-3 90,-1 130,1 10,1 8,14 0,16 -43,9 -92,19 -141,21 3,4 9,7 15,7 4,0 7,5 3,8 -16,14 -36,3 -42,-14 -19,0 -38,-1 -55,-4 -9,-2 -12,-16 -2,-19z"/>
     <path class="fil0" d="M2764 746c6,-13 13,-24 22,-35 0,-1 0,-1 1,-2l0 0c2,-4 5,-7 9,-10l0 0c0,-1 0,-2 1,-3 -1,-2 -2,-4 -2,-6 -1,-4 -2,-8 -3,-12 -1,-3 0,-7 -1,-10 -3,-10 10,-18 16,-9 3,3 6,5 8,9 1,1 1,3 1,4 13,-15 26,-30 41,-44 5,-5 14,2 11,9 -9,16 -19,30 -30,44 4,-1 9,-1 13,-1 8,1 11,11 7,17 -7,8 -19,13 -28,18 -9,4 -17,9 -27,10 -9,10 -18,19 -29,27 -5,4 -11,-2 -9,-7z"/>
    </g>
   </g>
  </g>
 </g>
</svg>
